{
    "asset" : {
        "generator" : "Khronos glTF Blender I/O v3.4.50",
        "version" : "2.0"
    },
    "scene" : 0,
    "scenes" : [
        {
            "name" : "Scene",
            "nodes" : [
                0
            ]
        }
    ],
    "nodes" : [
        {
            "mesh" : 0,
            "name" : "Create01"
        }
    ],
    "materials" : [
        {
            "doubleSided" : true,
            "name" : "Material.001",
            "pbrMetallicRoughness" : {
                "baseColorTexture" : {
                    "index" : 0
                },
                "metallicFactor" : 0,
                "roughnessFactor" : 0.8793954849243164
            }
        }
    ],
    "meshes" : [
        {
            "name" : "Crate01_Material_0",
            "primitives" : [
                {
                    "attributes" : {
                        "POSITION" : 0,
                        "TEXCOORD_0" : 1,
                        "TEXCOORD_1" : 2,
                        "NORMAL" : 3
                    },
                    "indices" : 4,
                    "material" : 0
                }
            ]
        }
    ],
    "textures" : [
        {
            "sampler" : 0,
            "source" : 0
        }
    ],
    "images" : [
        {
            "bufferView" : 5,
            "mimeType" : "image/png",
            "name" : "Material_baseColor"
        }
    ],
    "accessors" : [
        {
            "bufferView" : 0,
            "componentType" : 5126,
            "count" : 3879,
            "max" : [
                0.36958611011505127,
                0.36883544921875,
                0.3434467315673828
            ],
            "min" : [
                -0.367467999458313,
                -0.3682098388671875,
                -0.33914899826049805
            ],
            "type" : "VEC3"
        },
        {
            "bufferView" : 1,
            "componentType" : 5126,
            "count" : 3879,
            "type" : "VEC2"
        },
        {
            "bufferView" : 2,
            "componentType" : 5126,
            "count" : 3879,
            "type" : "VEC2"
        },
        {
            "bufferView" : 3,
            "componentType" : 5126,
            "count" : 3879,
            "type" : "VEC3"
        },
        {
            "bufferView" : 4,
            "componentType" : 5123,
            "count" : 4104,
            "type" : "SCALAR"
        }
    ],
    "bufferViews" : [
        {
            "buffer" : 0,
            "byteLength" : 46548,
            "byteOffset" : 0,
            "target" : 34962
        },
        {
            "buffer" : 0,
            "byteLength" : 31032,
            "byteOffset" : 46548,
            "target" : 34962
        },
        {
            "buffer" : 0,
            "byteLength" : 31032,
            "byteOffset" : 77580,
            "target" : 34962
        },
        {
            "buffer" : 0,
            "byteLength" : 46548,
            "byteOffset" : 108612,
            "target" : 34962
        },
        {
            "buffer" : 0,
            "byteLength" : 8208,
            "byteOffset" : 155160,
            "target" : 34963
        },
        {
            "buffer" : 0,
            "byteLength" : 621950,
            "byteOffset" : 163368
        }
    ],
    "samplers" : [
        {
            "magFilter" : 9729,
            "minFilter" : 9987
        }
    ],
    "buffers" : [
        {
            "byteLength" : 785320,
            "uri" : "data:application/octet-stream;base64,"
        }
    ]
}
