{
    "asset" : {
        "generator" : "Khronos glTF Blender I/O v3.4.50",
        "version" : "2.0"
    },
    "scene" : 0,
    "scenes" : [
        {
            "name" : "Scene",
            "nodes" : [
                0
            ]
        }
    ],
    "nodes" : [
        {
            "mesh" : 0,
            "name" : "Crate02"
        }
    ],
    "materials" : [
        {
            "doubleSided" : true,
            "name" : "BaseWoodMaterial",
            "normalTexture" : {
                "index" : 0
            },
            "pbrMetallicRoughness" : {
                "baseColorTexture" : {
                    "index" : 1
                },
                "metallicFactor" : 0
            }
        }
    ],
    "meshes" : [
        {
            "name" : "Crate02_BaseWoodMaterial_0",
            "primitives" : [
                {
                    "attributes" : {
                        "POSITION" : 0,
                        "TEXCOORD_0" : 1,
                        "TEXCOORD_1" : 2,
                        "NORMAL" : 3
                    },
                    "indices" : 4,
                    "material" : 0
                }
            ]
        }
    ],
    "textures" : [
        {
            "sampler" : 0,
            "source" : 0
        },
        {
            "sampler" : 0,
            "source" : 1
        }
    ],
    "images" : [
        {
            "bufferView" : 5,
            "mimeType" : "image/png",
            "name" : "BaseWoodMaterial_normal"
        },
        {
            "bufferView" : 6,
            "mimeType" : "image/png",
            "name" : "BaseWoodMaterial_baseColor"
        }
    ],
    "accessors" : [
        {
            "bufferView" : 0,
            "componentType" : 5126,
            "count" : 2441,
            "max" : [
                0.40319567918777466,
                0.4036795496940613,
                0.4041626453399658
            ],
            "min" : [
                -0.40416356921195984,
                -0.4036796987056732,
                -0.4031965732574463
            ],
            "type" : "VEC3"
        },
        {
            "bufferView" : 1,
            "componentType" : 5126,
            "count" : 2441,
            "type" : "VEC2"
        },
        {
            "bufferView" : 2,
            "componentType" : 5126,
            "count" : 2441,
            "type" : "VEC2"
        },
        {
            "bufferView" : 3,
            "componentType" : 5126,
            "count" : 2441,
            "type" : "VEC3"
        },
        {
            "bufferView" : 4,
            "componentType" : 5123,
            "count" : 2664,
            "type" : "SCALAR"
        }
    ],
    "bufferViews" : [
        {
            "buffer" : 0,
            "byteLength" : 29292,
            "byteOffset" : 0,
            "target" : 34962
        },
        {
            "buffer" : 0,
            "byteLength" : 19528,
            "byteOffset" : 29292,
            "target" : 34962
        },
        {
            "buffer" : 0,
            "byteLength" : 19528,
            "byteOffset" : 48820,
            "target" : 34962
        },
        {
            "buffer" : 0,
            "byteLength" : 29292,
            "byteOffset" : 68348,
            "target" : 34962
        },
        {
            "buffer" : 0,
            "byteLength" : 5328,
            "byteOffset" : 97640,
            "target" : 34963
        },
        {
            "buffer" : 0,
            "byteLength" : 720011,
            "byteOffset" : 102968
        },
        {
            "buffer" : 0,
            "byteLength" : 617143,
            "byteOffset" : 822980
        }
    ],
    "samplers" : [
        {
            "magFilter" : 9729,
            "minFilter" : 9987
        }
    ],
    "buffers" : [
        {
            "byteLength" : 1440124,
            "uri" : "data:application/octet-stream;base64,"
        }
    ]
}
