{
    "asset" : {
        "generator" : "Khronos glTF Blender I/O v3.4.50",
        "version" : "2.0"
    },
    "scene" : 0,
    "scenes" : [
        {
            "name" : "Scene",
            "nodes" : [
                2
            ]
        }
    ],
    "nodes" : [
        {
            "mesh" : 0,
            "name" : "Body"
        },
        {
            "mesh" : 1,
            "name" : "Propeller"
        },
        {
            "children" : [
                0,
                1
            ],
            "name" : "Heli"
        }
    ],
    "materials" : [
        {
            "doubleSided" : true,
            "name" : "Palette.001",
            "pbrMetallicRoughness" : {
                "baseColorTexture" : {
                    "index" : 0
                },
                "metallicFactor" : 0,
                "roughnessFactor" : 0.5527864098548889
            }
        }
    ],
    "meshes" : [
        {
            "name" : "Mesh.005",
            "primitives" : [
                {
                    "attributes" : {
                        "POSITION" : 0,
                        "TEXCOORD_0" : 1,
                        "NORMAL" : 2
                    },
                    "indices" : 3,
                    "material" : 0
                }
            ]
        },
        {
            "name" : "Mesh.004",
            "primitives" : [
                {
                    "attributes" : {
                        "POSITION" : 4,
                        "TEXCOORD_0" : 5,
                        "NORMAL" : 6
                    },
                    "indices" : 7,
                    "material" : 0
                }
            ]
        }
    ],
    "textures" : [
        {
            "sampler" : 0,
            "source" : 0
        }
    ],
    "images" : [
        {
            "mimeType" : "image/png",
            "name" : "Palette",
            "uri" : "Palette.png"
        }
    ],
    "accessors" : [
        {
            "bufferView" : 0,
            "componentType" : 5126,
            "count" : 2505,
            "max" : [
                0.7279624938964844,
                2.3322484493255615,
                1.4175570011138916
            ],
            "min" : [
                -0.7387392520904541,
                -0.09752915799617767,
                -4.760570049285889
            ],
            "type" : "VEC3"
        },
        {
            "bufferView" : 1,
            "componentType" : 5126,
            "count" : 2505,
            "type" : "VEC2"
        },
        {
            "bufferView" : 2,
            "componentType" : 5126,
            "count" : 2505,
            "type" : "VEC3"
        },
        {
            "bufferView" : 3,
            "componentType" : 5123,
            "count" : 4911,
            "type" : "SCALAR"
        },
        {
            "bufferView" : 4,
            "componentType" : 5126,
            "count" : 429,
            "max" : [
                3.28794002532959,
                1.9398390054702759,
                2.965982675552368
            ],
            "min" : [
                -3.370642900466919,
                1.733788013458252,
                -3.6915721893310547
            ],
            "type" : "VEC3"
        },
        {
            "bufferView" : 5,
            "componentType" : 5126,
            "count" : 429,
            "type" : "VEC2"
        },
        {
            "bufferView" : 6,
            "componentType" : 5126,
            "count" : 429,
            "type" : "VEC3"
        },
        {
            "bufferView" : 7,
            "componentType" : 5123,
            "count" : 690,
            "type" : "SCALAR"
        }
    ],
    "bufferViews" : [
        {
            "buffer" : 0,
            "byteLength" : 30060,
            "byteOffset" : 0,
            "target" : 34962
        },
        {
            "buffer" : 0,
            "byteLength" : 20040,
            "byteOffset" : 30060,
            "target" : 34962
        },
        {
            "buffer" : 0,
            "byteLength" : 30060,
            "byteOffset" : 50100,
            "target" : 34962
        },
        {
            "buffer" : 0,
            "byteLength" : 9822,
            "byteOffset" : 80160,
            "target" : 34963
        },
        {
            "buffer" : 0,
            "byteLength" : 5148,
            "byteOffset" : 89984,
            "target" : 34962
        },
        {
            "buffer" : 0,
            "byteLength" : 3432,
            "byteOffset" : 95132,
            "target" : 34962
        },
        {
            "buffer" : 0,
            "byteLength" : 5148,
            "byteOffset" : 98564,
            "target" : 34962
        },
        {
            "buffer" : 0,
            "byteLength" : 1380,
            "byteOffset" : 103712,
            "target" : 34963
        }
    ],
    "samplers" : [
        {
            "magFilter" : 9729,
            "minFilter" : 9987
        }
    ],
    "buffers" : [
        {
            "byteLength" : 105092,
            "uri" : "heli.bin"
        }
    ]
}
